<svg xmlns="http://www.w3.org/2000/svg" version="1.1" xmlns:xlink="http://www.w3.org/1999/xlink" xmlns:svgjs="http://svgjs.dev/svgjs" width="1500" height="1500" viewBox="0 0 1500 1500"><rect width="1500" height="1500" fill="#000000"></rect><g transform="matrix(0.6666666666666666,0,0,0.6666666666666666,250.48192441951227,402.89363531711507)"><svg viewBox="0 0 359 248" data-background-color="#ffffff" preserveAspectRatio="xMidYMid meet" height="1036" width="1500" xmlns="http://www.w3.org/2000/svg" xmlns:xlink="http://www.w3.org/1999/xlink"><g id="tight-bounds" transform="matrix(1,0,0,1,-0.17301086660489773,0.6366483224258843)"><svg viewBox="0 0 359.3460217332098 247.2" height="247.2" width="359.3460217332098"><g><svg viewBox="0 0 395.52000000000004 272.08467072606004" height="247.2" width="359.3460217332098"><g transform="matrix(1,0,0,1,0,168.1592420043346)"><svg viewBox="0 0 395.52000000000004 103.92542872172542" height="103.92542872172542" width="395.52000000000004"><g id="textblocktransform"><svg viewBox="0 0 395.52000000000004 103.92542872172542" height="103.92542872172542" width="395.52000000000004" id="textblock"><g><svg viewBox="0 0 395.52000000000004 103.92542872172542" height="103.92542872172542" width="395.52000000000004"><g transform="matrix(1,0,0,1,0,0)"><svg width="395.52000000000004" viewBox="3.9 -37.35 190.07999999999998 49.95" height="103.92542872172542" data-palette-color="#093d65"><path d="M28.7 0L22.25 0 14.85-13.9Q12.55-13.8 10.75-13.8L10.75-13.8 9.35-13.8 9.35 0 3.9 0 3.9-36.75 12.25-36.75Q18.6-36.75 22.7-34.13 26.8-31.5 26.8-25.6L26.8-25.6Q26.8-21.9 25.08-19.23 23.35-16.55 19.95-15.1L19.95-15.1 28.7 0ZM9.35-18.35L12.9-18.35Q17.8-18.35 19.63-20.48 21.45-22.6 21.45-25.55L21.45-25.55Q21.45-32.1 12.7-32.1L12.7-32.1 9.35-32.1 9.35-18.35ZM44.9 0.5Q40.8 0.5 38.05-1.13 35.3-2.75 34-5.48 32.7-8.2 32.7-11.45L32.7-11.45Q32.7-15.1 34.22-17.85 35.75-20.6 38.45-22.08 41.15-23.55 44.55-23.55L44.55-23.55Q49.85-23.55 52.42-20.63 55-17.7 55-12.4L55-12.4Q55-11.05 54.85-9.6L54.85-9.6 38.35-9.6Q38.9-6.55 40.52-5.2 42.15-3.85 45.05-3.85L45.05-3.85Q47.45-3.85 49-4.25 50.55-4.65 51.85-5.35L51.85-5.35 53.5-1.5Q52.25-0.7 50.1-0.1 47.95 0.5 44.9 0.5L44.9 0.5ZM38.35-13.35L49.75-13.35Q49.8-16.45 48.4-17.73 47-19 44.4-19L44.4-19Q39.15-19 38.35-13.35L38.35-13.35ZM71.34 0.5Q67.94 0.5 65.22-0.98 62.49-2.45 60.89-5.23 59.3-8 59.3-11.75L59.3-11.75Q59.3-15.3 60.77-17.98 62.24-20.65 64.92-22.1 67.59-23.55 71.09-23.55L71.09-23.55Q73.75-23.55 75.67-22.88 77.59-22.2 78.69-21.2L78.69-21.2 76.3-16.85Q74.19-18.95 71.55-18.95L71.55-18.95Q68.34-18.95 66.67-17 65-15.05 65-11.8L65-11.8Q65-8.1 66.72-6.05 68.44-4 71.55-4L71.55-4Q73.09-4 74.57-4.45 76.05-4.9 76.84-5.5L76.84-5.5 78.8-1.7Q77.69-0.85 75.72-0.18 73.75 0.5 71.34 0.5L71.34 0.5ZM84.34 0L84.34-22.95 89.94-22.95 89.94 0 84.34 0ZM87.09-27.25Q85.54-27.25 84.49-28.3 83.44-29.35 83.44-30.9L83.44-30.9Q83.44-32.3 84.49-33.3 85.54-34.3 87.09-34.3L87.09-34.3Q88.59-34.3 89.64-33.3 90.69-32.3 90.69-30.9L90.69-30.9Q90.69-29.35 89.67-28.3 88.64-27.25 87.09-27.25L87.09-27.25ZM97.54 12.15L97.54-22.95 102.74-22.95 102.74-18.7Q105.49-23.55 111.34-23.55L111.34-23.55Q116.19-23.55 119.19-20.48 122.19-17.4 122.19-11.6L122.19-11.6Q122.19-8 120.72-5.25 119.24-2.5 116.72-1 114.19 0.5 111.09 0.5L111.09 0.5Q108.19 0.5 106.06-0.53 103.94-1.55 102.74-3.45L102.74-3.45 102.79 12.15 97.54 12.15ZM109.84-4.05Q113.09-4.05 114.84-6.13 116.59-8.2 116.59-11.45L116.59-11.45Q116.59-14.85 114.87-16.88 113.14-18.9 109.84-18.9L109.84-18.9Q108.04-18.9 106.47-18.03 104.89-17.15 103.97-15.53 103.04-13.9 103.04-11.75L103.04-11.75 103.04-11.4Q103.04-9.25 103.97-7.58 104.89-5.9 106.44-4.98 107.99-4.05 109.84-4.05L109.84-4.05ZM138.79 0.5Q134.69 0.5 131.94-1.13 129.19-2.75 127.89-5.48 126.59-8.2 126.59-11.45L126.59-11.45Q126.59-15.1 128.11-17.85 129.64-20.6 132.34-22.08 135.04-23.55 138.44-23.55L138.44-23.55Q143.74-23.55 146.31-20.63 148.89-17.7 148.89-12.4L148.89-12.4Q148.89-11.05 148.74-9.6L148.74-9.6 132.24-9.6Q132.79-6.55 134.41-5.2 136.04-3.85 138.94-3.85L138.94-3.85Q141.34-3.85 142.89-4.25 144.44-4.65 145.74-5.35L145.74-5.35 147.39-1.5Q146.14-0.7 143.99-0.1 141.84 0.5 138.79 0.5L138.79 0.5ZM132.24-13.35L143.64-13.35Q143.69-16.45 142.29-17.73 140.89-19 138.29-19L138.29-19Q133.04-19 132.24-13.35L132.24-13.35ZM156.69 0L156.69-18.65 152.99-18.65 152.99-22.95 156.69-22.95 156.69-27.9Q156.69-32.4 158.86-34.88 161.04-37.35 165.24-37.35L165.24-37.35Q166.94-37.35 169.09-36.4L169.09-36.4 168.04-31.3Q167.69-31.7 166.96-32.08 166.24-32.45 165.39-32.45L165.39-32.45Q162.04-32.45 161.99-28.1L161.99-28.1 161.99-22.95 167.39-22.95 167.39-18.65 161.99-18.65 161.99 0 156.69 0ZM174.28 12.6L179.23 0.7 169.73-22.95 175.83-22.95 180.73-8.35 181.83-4.8 182.93-8.35 188.08-22.95 193.98-22.95 179.88 12.6 174.28 12.6Z" opacity="1" transform="matrix(1,0,0,1,0,0)" fill="#ffffff" class="wordmark-text-0" data-fill-palette-color="primary" id="text-0"></path></svg></g></svg></g></svg></g></svg></g><g transform="matrix(1,0,0,1,125.12877613716945,0)"><svg viewBox="0 0 145.26244772566113 143.62494249342456" height="143.62494249342456" width="145.26244772566113"><g><svg xmlns="http://www.w3.org/2000/svg" viewBox="12 7.9999996390453045 72.0000003609547 80.0000007219094" x="8" y="0" height="143.62494249342456" width="129.26244772566113" class="icon-icon-0" data-fill-palette-color="accent" id="icon-0"><g fill="#f98e54" data-fill-palette-color="accent"><path d="M82 8H18a6.007 6.007 0 0 0-6 6V82a6.007 6.007 0 0 0 6 6H82a1.999 1.999 0 0 0 2-2V10A1.999 1.999 0 0 0 82 8ZM16 82V14a2.003 2.003 0 0 1 2-2h2V84H18A2.003 2.003 0 0 1 16 82Zm64 2H24V12H80Z" fill="#ffffff" data-fill-palette-color="accent"></path><path d="M60 47.798V70a2 2 0 0 0 4 0V47.798A10.015 10.015 0 0 0 72 38V28a2 2 0 0 0-4 0V38a5.99 5.99 0 0 1-4 5.632V28a2 2 0 0 0-4 0V43.632A5.99 5.99 0 0 1 56 38V28a2 2 0 0 0-4 0V38A10.015 10.015 0 0 0 60 47.798Z" fill="#ffffff" data-fill-palette-color="accent"></path><path d="M38 47.704V70a2 2 0 0 0 4 0V47.704c3.086-0.823 6-3.638 6-9.704 0-5.723-2.848-14-8-14s-8 8.277-8 14C32 44.066 34.914 46.881 38 47.704ZM40 28c1.352 0 4 4.527 4 10 0 2.24-0.52 6-4 6s-4-3.76-4-6C36 32.527 38.648 28 40 28Z" fill="#ffffff" data-fill-palette-color="accent"></path></g></svg></g></svg></g><g><rect width="107.04178700377433" height="9.37210241316764" y="133.2528400802569" x="270.3912238628306" fill="#ffffff" data-fill-palette-color="accent"></rect><rect width="107.04178700377433" height="9.37210241316764" y="133.2528400802569" x="18.08698913339512" fill="#ffffff" data-fill-palette-color="accent"></rect><rect width="107.04178700377433" height="9.37210241316764" y="114.50863525392163" x="270.3912238628306" fill="#ffffff" data-fill-palette-color="accent"></rect><rect width="107.04178700377433" height="9.37210241316764" y="114.50863525392163" x="18.08698913339512" fill="#ffffff" data-fill-palette-color="accent"></rect></g></svg></g><defs></defs></svg><rect width="359.3460217332098" height="247.2" fill="none" stroke="none" visibility="hidden"></rect></g></svg></g></svg>